<mxfile host="Electron" agent="Mozilla/5.0 (Windows NT 10.0; Win64; x64) AppleWebKit/537.36 (KHTML, like Gecko) draw.io/26.0.9 Chrome/128.0.6613.186 Electron/32.2.5 Safari/537.36" version="26.0.9">
  <diagram id="C5RBs43oDa-KdzZeNtuy" name="Page-1">
    <mxGraphModel dx="3695" dy="3081" grid="1" gridSize="10" guides="1" tooltips="1" connect="1" arrows="1" fold="1" page="1" pageScale="1" pageWidth="827" pageHeight="1169" math="0" shadow="0">
      <root>
        <mxCell id="WIyWlLk6GJQsqaUBKTNV-0" />
        <mxCell id="WIyWlLk6GJQsqaUBKTNV-1" parent="WIyWlLk6GJQsqaUBKTNV-0" />
        <mxCell id="7tPE2KJ426EZoo1Mz3U_-100" value="CustomerEntity" style="swimlane;fontStyle=1;childLayout=stackLayout;horizontal=1;startSize=26;horizontalStack=0;resizeParent=1;resizeParentMax=0;resizeLast=0;collapsible=1;marginBottom=0;" parent="WIyWlLk6GJQsqaUBKTNV-1" vertex="1">
          <mxGeometry x="28" y="845" width="300" height="320" as="geometry" />
        </mxCell>
        <mxCell id="7tPE2KJ426EZoo1Mz3U_-101" value="-Id: Guid" style="text;strokeColor=none;fillColor=none;align=left;verticalAlign=top;spacingLeft=4;spacingRight=4;overflow=hidden;rotatable=0;points=[[0,0.5],[1,0.5]];portConstraint=eastwest;" parent="7tPE2KJ426EZoo1Mz3U_-100" vertex="1">
          <mxGeometry y="26" width="300" height="26" as="geometry" />
        </mxCell>
        <mxCell id="7tPE2KJ426EZoo1Mz3U_-102" value="-Name: String" style="text;strokeColor=none;fillColor=none;align=left;verticalAlign=top;spacingLeft=4;spacingRight=4;overflow=hidden;rotatable=0;points=[[0,0.5],[1,0.5]];portConstraint=eastwest;" parent="7tPE2KJ426EZoo1Mz3U_-100" vertex="1">
          <mxGeometry y="52" width="300" height="26" as="geometry" />
        </mxCell>
        <mxCell id="7tPE2KJ426EZoo1Mz3U_-103" value="-Email: String" style="text;strokeColor=none;fillColor=none;align=left;verticalAlign=top;spacingLeft=4;spacingRight=4;overflow=hidden;rotatable=0;points=[[0,0.5],[1,0.5]];portConstraint=eastwest;" parent="7tPE2KJ426EZoo1Mz3U_-100" vertex="1">
          <mxGeometry y="78" width="300" height="26" as="geometry" />
        </mxCell>
        <mxCell id="7tPE2KJ426EZoo1Mz3U_-104" value="-Phone: String" style="text;strokeColor=none;fillColor=none;align=left;verticalAlign=top;spacingLeft=4;spacingRight=4;overflow=hidden;rotatable=0;points=[[0,0.5],[1,0.5]];portConstraint=eastwest;" parent="7tPE2KJ426EZoo1Mz3U_-100" vertex="1">
          <mxGeometry y="104" width="300" height="26" as="geometry" />
        </mxCell>
        <mxCell id="7tPE2KJ426EZoo1Mz3U_-105" value="-Address: String" style="text;strokeColor=none;fillColor=none;align=left;verticalAlign=top;spacingLeft=4;spacingRight=4;overflow=hidden;rotatable=0;points=[[0,0.5],[1,0.5]];portConstraint=eastwest;" parent="7tPE2KJ426EZoo1Mz3U_-100" vertex="1">
          <mxGeometry y="130" width="300" height="26" as="geometry" />
        </mxCell>
        <mxCell id="7tPE2KJ426EZoo1Mz3U_-106" value="-RegistrationDate: DateTime" style="text;strokeColor=none;fillColor=none;align=left;verticalAlign=top;spacingLeft=4;spacingRight=4;overflow=hidden;rotatable=0;points=[[0,0.5],[1,0.5]];portConstraint=eastwest;" parent="7tPE2KJ426EZoo1Mz3U_-100" vertex="1">
          <mxGeometry y="156" width="300" height="26" as="geometry" />
        </mxCell>
        <mxCell id="7tPE2KJ426EZoo1Mz3U_-107" value="-Status: String" style="text;strokeColor=none;fillColor=none;align=left;verticalAlign=top;spacingLeft=4;spacingRight=4;overflow=hidden;rotatable=0;points=[[0,0.5],[1,0.5]];portConstraint=eastwest;" parent="7tPE2KJ426EZoo1Mz3U_-100" vertex="1">
          <mxGeometry y="182" width="300" height="26" as="geometry" />
        </mxCell>
        <mxCell id="7tPE2KJ426EZoo1Mz3U_-108" value="" style="line;strokeWidth=1;fillColor=none;align=left;verticalAlign=middle;spacingTop=-1;spacingLeft=3;spacingRight=3;rotatable=0;labelPosition=right;points=[];portConstraint=eastwest;" parent="7tPE2KJ426EZoo1Mz3U_-100" vertex="1">
          <mxGeometry y="208" width="300" height="8" as="geometry" />
        </mxCell>
        <mxCell id="7tPE2KJ426EZoo1Mz3U_-109" value="+CustomerEntity()" style="text;strokeColor=none;fillColor=none;align=left;verticalAlign=top;spacingLeft=4;spacingRight=4;overflow=hidden;rotatable=0;points=[[0,0.5],[1,0.5]];portConstraint=eastwest;" parent="7tPE2KJ426EZoo1Mz3U_-100" vertex="1">
          <mxGeometry y="216" width="300" height="26" as="geometry" />
        </mxCell>
        <mxCell id="7tPE2KJ426EZoo1Mz3U_-110" value="+CustomerEntity(Guid, String, String, String, String)" style="text;strokeColor=none;fillColor=none;align=left;verticalAlign=top;spacingLeft=4;spacingRight=4;overflow=hidden;rotatable=0;points=[[0,0.5],[1,0.5]];portConstraint=eastwest;" parent="7tPE2KJ426EZoo1Mz3U_-100" vertex="1">
          <mxGeometry y="242" width="300" height="26" as="geometry" />
        </mxCell>
        <mxCell id="7tPE2KJ426EZoo1Mz3U_-111" value="+CustomerEntity(Guid)" style="text;strokeColor=none;fillColor=none;align=left;verticalAlign=top;spacingLeft=4;spacingRight=4;overflow=hidden;rotatable=0;points=[[0,0.5],[1,0.5]];portConstraint=eastwest;" parent="7tPE2KJ426EZoo1Mz3U_-100" vertex="1">
          <mxGeometry y="268" width="300" height="26" as="geometry" />
        </mxCell>
        <mxCell id="7tPE2KJ426EZoo1Mz3U_-112" value="+CustomerEntity(CustomerModel)" style="text;strokeColor=none;fillColor=none;align=left;verticalAlign=top;spacingLeft=4;spacingRight=4;overflow=hidden;rotatable=0;points=[[0,0.5],[1,0.5]];portConstraint=eastwest;" parent="7tPE2KJ426EZoo1Mz3U_-100" vertex="1">
          <mxGeometry y="294" width="300" height="26" as="geometry" />
        </mxCell>
        <mxCell id="7tPE2KJ426EZoo1Mz3U_-113" value="FarmerEntity" style="swimlane;fontStyle=1;childLayout=stackLayout;horizontal=1;startSize=26;horizontalStack=0;resizeParent=1;resizeParentMax=0;resizeLast=0;collapsible=1;marginBottom=0;" parent="WIyWlLk6GJQsqaUBKTNV-1" vertex="1">
          <mxGeometry x="-377" y="862" width="310" height="294" as="geometry" />
        </mxCell>
        <mxCell id="7tPE2KJ426EZoo1Mz3U_-114" value="-Id: Guid" style="text;strokeColor=none;fillColor=none;align=left;verticalAlign=top;spacingLeft=4;spacingRight=4;overflow=hidden;rotatable=0;points=[[0,0.5],[1,0.5]];portConstraint=eastwest;" parent="7tPE2KJ426EZoo1Mz3U_-113" vertex="1">
          <mxGeometry y="26" width="310" height="26" as="geometry" />
        </mxCell>
        <mxCell id="7tPE2KJ426EZoo1Mz3U_-115" value="-Name: String" style="text;strokeColor=none;fillColor=none;align=left;verticalAlign=top;spacingLeft=4;spacingRight=4;overflow=hidden;rotatable=0;points=[[0,0.5],[1,0.5]];portConstraint=eastwest;" parent="7tPE2KJ426EZoo1Mz3U_-113" vertex="1">
          <mxGeometry y="52" width="310" height="26" as="geometry" />
        </mxCell>
        <mxCell id="7tPE2KJ426EZoo1Mz3U_-116" value="-Email: String?" style="text;strokeColor=none;fillColor=none;align=left;verticalAlign=top;spacingLeft=4;spacingRight=4;overflow=hidden;rotatable=0;points=[[0,0.5],[1,0.5]];portConstraint=eastwest;" parent="7tPE2KJ426EZoo1Mz3U_-113" vertex="1">
          <mxGeometry y="78" width="310" height="26" as="geometry" />
        </mxCell>
        <mxCell id="7tPE2KJ426EZoo1Mz3U_-117" value="-Phone: String" style="text;strokeColor=none;fillColor=none;align=left;verticalAlign=top;spacingLeft=4;spacingRight=4;overflow=hidden;rotatable=0;points=[[0,0.5],[1,0.5]];portConstraint=eastwest;" parent="7tPE2KJ426EZoo1Mz3U_-113" vertex="1">
          <mxGeometry y="104" width="310" height="26" as="geometry" />
        </mxCell>
        <mxCell id="7tPE2KJ426EZoo1Mz3U_-118" value="-Location: String" style="text;strokeColor=none;fillColor=none;align=left;verticalAlign=top;spacingLeft=4;spacingRight=4;overflow=hidden;rotatable=0;points=[[0,0.5],[1,0.5]];portConstraint=eastwest;" parent="7tPE2KJ426EZoo1Mz3U_-113" vertex="1">
          <mxGeometry y="130" width="310" height="26" as="geometry" />
        </mxCell>
        <mxCell id="7tPE2KJ426EZoo1Mz3U_-119" value="-Status: String" style="text;strokeColor=none;fillColor=none;align=left;verticalAlign=top;spacingLeft=4;spacingRight=4;overflow=hidden;rotatable=0;points=[[0,0.5],[1,0.5]];portConstraint=eastwest;" parent="7tPE2KJ426EZoo1Mz3U_-113" vertex="1">
          <mxGeometry y="156" width="310" height="26" as="geometry" />
        </mxCell>
        <mxCell id="7tPE2KJ426EZoo1Mz3U_-120" value="" style="line;strokeWidth=1;fillColor=none;align=left;verticalAlign=middle;spacingTop=-1;spacingLeft=3;spacingRight=3;rotatable=0;labelPosition=right;points=[];portConstraint=eastwest;" parent="7tPE2KJ426EZoo1Mz3U_-113" vertex="1">
          <mxGeometry y="182" width="310" height="8" as="geometry" />
        </mxCell>
        <mxCell id="7tPE2KJ426EZoo1Mz3U_-121" value="+FarmerEntity()" style="text;strokeColor=none;fillColor=none;align=left;verticalAlign=top;spacingLeft=4;spacingRight=4;overflow=hidden;rotatable=0;points=[[0,0.5],[1,0.5]];portConstraint=eastwest;" parent="7tPE2KJ426EZoo1Mz3U_-113" vertex="1">
          <mxGeometry y="190" width="310" height="26" as="geometry" />
        </mxCell>
        <mxCell id="7tPE2KJ426EZoo1Mz3U_-122" value="+FarmerEntity(Guid)" style="text;strokeColor=none;fillColor=none;align=left;verticalAlign=top;spacingLeft=4;spacingRight=4;overflow=hidden;rotatable=0;points=[[0,0.5],[1,0.5]];portConstraint=eastwest;" parent="7tPE2KJ426EZoo1Mz3U_-113" vertex="1">
          <mxGeometry y="216" width="310" height="26" as="geometry" />
        </mxCell>
        <mxCell id="7tPE2KJ426EZoo1Mz3U_-123" value="+FarmerEntity(FarmerModel)" style="text;strokeColor=none;fillColor=none;align=left;verticalAlign=top;spacingLeft=4;spacingRight=4;overflow=hidden;rotatable=0;points=[[0,0.5],[1,0.5]];portConstraint=eastwest;" parent="7tPE2KJ426EZoo1Mz3U_-113" vertex="1">
          <mxGeometry y="242" width="310" height="26" as="geometry" />
        </mxCell>
        <mxCell id="7tPE2KJ426EZoo1Mz3U_-124" value="+toEntityList(List&lt;FarmerModel&gt;): List&lt;FarmerEntity&gt;" style="text;strokeColor=none;fillColor=none;align=left;verticalAlign=top;spacingLeft=4;spacingRight=4;overflow=hidden;rotatable=0;points=[[0,0.5],[1,0.5]];portConstraint=eastwest;" parent="7tPE2KJ426EZoo1Mz3U_-113" vertex="1">
          <mxGeometry y="268" width="310" height="26" as="geometry" />
        </mxCell>
        <mxCell id="7tPE2KJ426EZoo1Mz3U_-125" value="FarmerProductEntity" style="swimlane;fontStyle=1;childLayout=stackLayout;horizontal=1;startSize=26;horizontalStack=0;resizeParent=1;resizeParentMax=0;resizeLast=0;collapsible=1;marginBottom=0;" parent="WIyWlLk6GJQsqaUBKTNV-1" vertex="1">
          <mxGeometry x="-447" y="492" width="270" height="242" as="geometry" />
        </mxCell>
        <mxCell id="7tPE2KJ426EZoo1Mz3U_-126" value="-Id: Guid" style="text;strokeColor=none;fillColor=none;align=left;verticalAlign=top;spacingLeft=4;spacingRight=4;overflow=hidden;rotatable=0;points=[[0,0.5],[1,0.5]];portConstraint=eastwest;" parent="7tPE2KJ426EZoo1Mz3U_-125" vertex="1">
          <mxGeometry y="26" width="270" height="26" as="geometry" />
        </mxCell>
        <mxCell id="7tPE2KJ426EZoo1Mz3U_-127" value="-Farmer: FarmerEntity?" style="text;strokeColor=none;fillColor=none;align=left;verticalAlign=top;spacingLeft=4;spacingRight=4;overflow=hidden;rotatable=0;points=[[0,0.5],[1,0.5]];portConstraint=eastwest;" parent="7tPE2KJ426EZoo1Mz3U_-125" vertex="1">
          <mxGeometry y="52" width="270" height="26" as="geometry" />
        </mxCell>
        <mxCell id="7tPE2KJ426EZoo1Mz3U_-128" value="-Product: ProductEntity?" style="text;strokeColor=none;fillColor=none;align=left;verticalAlign=top;spacingLeft=4;spacingRight=4;overflow=hidden;rotatable=0;points=[[0,0.5],[1,0.5]];portConstraint=eastwest;" parent="7tPE2KJ426EZoo1Mz3U_-125" vertex="1">
          <mxGeometry y="78" width="270" height="26" as="geometry" />
        </mxCell>
        <mxCell id="7tPE2KJ426EZoo1Mz3U_-129" value="-QuantityAvailable: Decimal" style="text;strokeColor=none;fillColor=none;align=left;verticalAlign=top;spacingLeft=4;spacingRight=4;overflow=hidden;rotatable=0;points=[[0,0.5],[1,0.5]];portConstraint=eastwest;" parent="7tPE2KJ426EZoo1Mz3U_-125" vertex="1">
          <mxGeometry y="104" width="270" height="26" as="geometry" />
        </mxCell>
        <mxCell id="7tPE2KJ426EZoo1Mz3U_-130" value="-Warehouse: WarehouseEntity?" style="text;strokeColor=none;fillColor=none;align=left;verticalAlign=top;spacingLeft=4;spacingRight=4;overflow=hidden;rotatable=0;points=[[0,0.5],[1,0.5]];portConstraint=eastwest;" parent="7tPE2KJ426EZoo1Mz3U_-125" vertex="1">
          <mxGeometry y="130" width="270" height="26" as="geometry" />
        </mxCell>
        <mxCell id="7tPE2KJ426EZoo1Mz3U_-131" value="-AddedAt: DateTime" style="text;strokeColor=none;fillColor=none;align=left;verticalAlign=top;spacingLeft=4;spacingRight=4;overflow=hidden;rotatable=0;points=[[0,0.5],[1,0.5]];portConstraint=eastwest;" parent="7tPE2KJ426EZoo1Mz3U_-125" vertex="1">
          <mxGeometry y="156" width="270" height="26" as="geometry" />
        </mxCell>
        <mxCell id="7tPE2KJ426EZoo1Mz3U_-132" value="" style="line;strokeWidth=1;fillColor=none;align=left;verticalAlign=middle;spacingTop=-1;spacingLeft=3;spacingRight=3;rotatable=0;labelPosition=right;points=[];portConstraint=eastwest;" parent="7tPE2KJ426EZoo1Mz3U_-125" vertex="1">
          <mxGeometry y="182" width="270" height="8" as="geometry" />
        </mxCell>
        <mxCell id="7tPE2KJ426EZoo1Mz3U_-133" value="+FarmerProductEntity()" style="text;strokeColor=none;fillColor=none;align=left;verticalAlign=top;spacingLeft=4;spacingRight=4;overflow=hidden;rotatable=0;points=[[0,0.5],[1,0.5]];portConstraint=eastwest;" parent="7tPE2KJ426EZoo1Mz3U_-125" vertex="1">
          <mxGeometry y="190" width="270" height="26" as="geometry" />
        </mxCell>
        <mxCell id="7tPE2KJ426EZoo1Mz3U_-134" value="+FarmerProductEntity(FarmerProductModel)" style="text;strokeColor=none;fillColor=none;align=left;verticalAlign=top;spacingLeft=4;spacingRight=4;overflow=hidden;rotatable=0;points=[[0,0.5],[1,0.5]];portConstraint=eastwest;" parent="7tPE2KJ426EZoo1Mz3U_-125" vertex="1">
          <mxGeometry y="216" width="270" height="26" as="geometry" />
        </mxCell>
        <mxCell id="7tPE2KJ426EZoo1Mz3U_-135" value="OrderEntity" style="swimlane;fontStyle=1;childLayout=stackLayout;horizontal=1;startSize=26;horizontalStack=0;resizeParent=1;resizeParentMax=0;resizeLast=0;collapsible=1;marginBottom=0;" parent="WIyWlLk6GJQsqaUBKTNV-1" vertex="1">
          <mxGeometry x="-118" y="425" width="400" height="320" as="geometry" />
        </mxCell>
        <mxCell id="7tPE2KJ426EZoo1Mz3U_-136" value="-Id: Guid" style="text;strokeColor=none;fillColor=none;align=left;verticalAlign=top;spacingLeft=4;spacingRight=4;overflow=hidden;rotatable=0;points=[[0,0.5],[1,0.5]];portConstraint=eastwest;" parent="7tPE2KJ426EZoo1Mz3U_-135" vertex="1">
          <mxGeometry y="26" width="400" height="26" as="geometry" />
        </mxCell>
        <mxCell id="7tPE2KJ426EZoo1Mz3U_-137" value="-customer: CustomerEntity" style="text;strokeColor=none;fillColor=none;align=left;verticalAlign=top;spacingLeft=4;spacingRight=4;overflow=hidden;rotatable=0;points=[[0,0.5],[1,0.5]];portConstraint=eastwest;" parent="7tPE2KJ426EZoo1Mz3U_-135" vertex="1">
          <mxGeometry y="52" width="400" height="26" as="geometry" />
        </mxCell>
        <mxCell id="7tPE2KJ426EZoo1Mz3U_-138" value="-TotalAmount: Decimal" style="text;strokeColor=none;fillColor=none;align=left;verticalAlign=top;spacingLeft=4;spacingRight=4;overflow=hidden;rotatable=0;points=[[0,0.5],[1,0.5]];portConstraint=eastwest;" parent="7tPE2KJ426EZoo1Mz3U_-135" vertex="1">
          <mxGeometry y="78" width="400" height="26" as="geometry" />
        </mxCell>
        <mxCell id="7tPE2KJ426EZoo1Mz3U_-139" value="-Status: String" style="text;strokeColor=none;fillColor=none;align=left;verticalAlign=top;spacingLeft=4;spacingRight=4;overflow=hidden;rotatable=0;points=[[0,0.5],[1,0.5]];portConstraint=eastwest;" parent="7tPE2KJ426EZoo1Mz3U_-135" vertex="1">
          <mxGeometry y="104" width="400" height="26" as="geometry" />
        </mxCell>
        <mxCell id="7tPE2KJ426EZoo1Mz3U_-140" value="-Orderdate: DateTime" style="text;strokeColor=none;fillColor=none;align=left;verticalAlign=top;spacingLeft=4;spacingRight=4;overflow=hidden;rotatable=0;points=[[0,0.5],[1,0.5]];portConstraint=eastwest;" parent="7tPE2KJ426EZoo1Mz3U_-135" vertex="1">
          <mxGeometry y="130" width="400" height="26" as="geometry" />
        </mxCell>
        <mxCell id="7tPE2KJ426EZoo1Mz3U_-141" value="-PaymentDate: DateTime?" style="text;strokeColor=none;fillColor=none;align=left;verticalAlign=top;spacingLeft=4;spacingRight=4;overflow=hidden;rotatable=0;points=[[0,0.5],[1,0.5]];portConstraint=eastwest;" parent="7tPE2KJ426EZoo1Mz3U_-135" vertex="1">
          <mxGeometry y="156" width="400" height="26" as="geometry" />
        </mxCell>
        <mxCell id="7tPE2KJ426EZoo1Mz3U_-142" value="-ProductOrders: List&lt;ProductOrderEntity&gt;?" style="text;strokeColor=none;fillColor=none;align=left;verticalAlign=top;spacingLeft=4;spacingRight=4;overflow=hidden;rotatable=0;points=[[0,0.5],[1,0.5]];portConstraint=eastwest;" parent="7tPE2KJ426EZoo1Mz3U_-135" vertex="1">
          <mxGeometry y="182" width="400" height="26" as="geometry" />
        </mxCell>
        <mxCell id="7tPE2KJ426EZoo1Mz3U_-143" value="" style="line;strokeWidth=1;fillColor=none;align=left;verticalAlign=middle;spacingTop=-1;spacingLeft=3;spacingRight=3;rotatable=0;labelPosition=right;points=[];portConstraint=eastwest;" parent="7tPE2KJ426EZoo1Mz3U_-135" vertex="1">
          <mxGeometry y="208" width="400" height="8" as="geometry" />
        </mxCell>
        <mxCell id="7tPE2KJ426EZoo1Mz3U_-144" value="+OrderEntity(OrderModel)" style="text;strokeColor=none;fillColor=none;align=left;verticalAlign=top;spacingLeft=4;spacingRight=4;overflow=hidden;rotatable=0;points=[[0,0.5],[1,0.5]];portConstraint=eastwest;" parent="7tPE2KJ426EZoo1Mz3U_-135" vertex="1">
          <mxGeometry y="216" width="400" height="26" as="geometry" />
        </mxCell>
        <mxCell id="7tPE2KJ426EZoo1Mz3U_-145" value="+OrderEntity(OrderModel, CustomerEntity, List&lt;ProductOrderEntity&gt;)" style="text;strokeColor=none;fillColor=none;align=left;verticalAlign=top;spacingLeft=4;spacingRight=4;overflow=hidden;rotatable=0;points=[[0,0.5],[1,0.5]];portConstraint=eastwest;" parent="7tPE2KJ426EZoo1Mz3U_-135" vertex="1">
          <mxGeometry y="242" width="400" height="26" as="geometry" />
        </mxCell>
        <mxCell id="7tPE2KJ426EZoo1Mz3U_-146" value="+OrderEntity(OrderModel, List&lt;ProductOrderEntity&gt;)" style="text;strokeColor=none;fillColor=none;align=left;verticalAlign=top;spacingLeft=4;spacingRight=4;overflow=hidden;rotatable=0;points=[[0,0.5],[1,0.5]];portConstraint=eastwest;" parent="7tPE2KJ426EZoo1Mz3U_-135" vertex="1">
          <mxGeometry y="268" width="400" height="26" as="geometry" />
        </mxCell>
        <mxCell id="7tPE2KJ426EZoo1Mz3U_-147" value="+toEntityList(List&lt;OrderModel&gt;): List&lt;OrderEntity&gt;" style="text;strokeColor=none;fillColor=none;align=left;verticalAlign=top;spacingLeft=4;spacingRight=4;overflow=hidden;rotatable=0;points=[[0,0.5],[1,0.5]];portConstraint=eastwest;" parent="7tPE2KJ426EZoo1Mz3U_-135" vertex="1">
          <mxGeometry y="294" width="400" height="26" as="geometry" />
        </mxCell>
        <mxCell id="7tPE2KJ426EZoo1Mz3U_-148" value="ProductEntity" style="swimlane;fontStyle=1;childLayout=stackLayout;horizontal=1;startSize=26;horizontalStack=0;resizeParent=1;resizeParentMax=0;resizeLast=0;collapsible=1;marginBottom=0;" parent="WIyWlLk6GJQsqaUBKTNV-1" vertex="1">
          <mxGeometry x="-132" y="-140" width="320" height="424" as="geometry" />
        </mxCell>
        <mxCell id="7tPE2KJ426EZoo1Mz3U_-149" value="-Id: Guid" style="text;strokeColor=none;fillColor=none;align=left;verticalAlign=top;spacingLeft=4;spacingRight=4;overflow=hidden;rotatable=0;points=[[0,0.5],[1,0.5]];portConstraint=eastwest;" parent="7tPE2KJ426EZoo1Mz3U_-148" vertex="1">
          <mxGeometry y="26" width="320" height="26" as="geometry" />
        </mxCell>
        <mxCell id="7tPE2KJ426EZoo1Mz3U_-150" value="-Name: String" style="text;strokeColor=none;fillColor=none;align=left;verticalAlign=top;spacingLeft=4;spacingRight=4;overflow=hidden;rotatable=0;points=[[0,0.5],[1,0.5]];portConstraint=eastwest;" parent="7tPE2KJ426EZoo1Mz3U_-148" vertex="1">
          <mxGeometry y="52" width="320" height="26" as="geometry" />
        </mxCell>
        <mxCell id="7tPE2KJ426EZoo1Mz3U_-151" value="-Description: String?" style="text;strokeColor=none;fillColor=none;align=left;verticalAlign=top;spacingLeft=4;spacingRight=4;overflow=hidden;rotatable=0;points=[[0,0.5],[1,0.5]];portConstraint=eastwest;" parent="7tPE2KJ426EZoo1Mz3U_-148" vertex="1">
          <mxGeometry y="78" width="320" height="26" as="geometry" />
        </mxCell>
        <mxCell id="7tPE2KJ426EZoo1Mz3U_-152" value="-Category: String?" style="text;strokeColor=none;fillColor=none;align=left;verticalAlign=top;spacingLeft=4;spacingRight=4;overflow=hidden;rotatable=0;points=[[0,0.5],[1,0.5]];portConstraint=eastwest;" parent="7tPE2KJ426EZoo1Mz3U_-148" vertex="1">
          <mxGeometry y="104" width="320" height="26" as="geometry" />
        </mxCell>
        <mxCell id="7tPE2KJ426EZoo1Mz3U_-153" value="-PricePerUnit: Decimal" style="text;strokeColor=none;fillColor=none;align=left;verticalAlign=top;spacingLeft=4;spacingRight=4;overflow=hidden;rotatable=0;points=[[0,0.5],[1,0.5]];portConstraint=eastwest;" parent="7tPE2KJ426EZoo1Mz3U_-148" vertex="1">
          <mxGeometry y="130" width="320" height="26" as="geometry" />
        </mxCell>
        <mxCell id="7tPE2KJ426EZoo1Mz3U_-154" value="-Unit: String" style="text;strokeColor=none;fillColor=none;align=left;verticalAlign=top;spacingLeft=4;spacingRight=4;overflow=hidden;rotatable=0;points=[[0,0.5],[1,0.5]];portConstraint=eastwest;" parent="7tPE2KJ426EZoo1Mz3U_-148" vertex="1">
          <mxGeometry y="156" width="320" height="26" as="geometry" />
        </mxCell>
        <mxCell id="7tPE2KJ426EZoo1Mz3U_-155" value="-CreatedAt: DateTime" style="text;strokeColor=none;fillColor=none;align=left;verticalAlign=top;spacingLeft=4;spacingRight=4;overflow=hidden;rotatable=0;points=[[0,0.5],[1,0.5]];portConstraint=eastwest;" parent="7tPE2KJ426EZoo1Mz3U_-148" vertex="1">
          <mxGeometry y="182" width="320" height="26" as="geometry" />
        </mxCell>
        <mxCell id="7tPE2KJ426EZoo1Mz3U_-156" value="-Status: String" style="text;strokeColor=none;fillColor=none;align=left;verticalAlign=top;spacingLeft=4;spacingRight=4;overflow=hidden;rotatable=0;points=[[0,0.5],[1,0.5]];portConstraint=eastwest;" parent="7tPE2KJ426EZoo1Mz3U_-148" vertex="1">
          <mxGeometry y="208" width="320" height="26" as="geometry" />
        </mxCell>
        <mxCell id="7tPE2KJ426EZoo1Mz3U_-157" value="-NameAmharic: String?" style="text;strokeColor=none;fillColor=none;align=left;verticalAlign=top;spacingLeft=4;spacingRight=4;overflow=hidden;rotatable=0;points=[[0,0.5],[1,0.5]];portConstraint=eastwest;" parent="7tPE2KJ426EZoo1Mz3U_-148" vertex="1">
          <mxGeometry y="234" width="320" height="26" as="geometry" />
        </mxCell>
        <mxCell id="7tPE2KJ426EZoo1Mz3U_-158" value="-DescriptionAmharic: String?" style="text;strokeColor=none;fillColor=none;align=left;verticalAlign=top;spacingLeft=4;spacingRight=4;overflow=hidden;rotatable=0;points=[[0,0.5],[1,0.5]];portConstraint=eastwest;" parent="7tPE2KJ426EZoo1Mz3U_-148" vertex="1">
          <mxGeometry y="260" width="320" height="26" as="geometry" />
        </mxCell>
        <mxCell id="7tPE2KJ426EZoo1Mz3U_-159" value="" style="line;strokeWidth=1;fillColor=none;align=left;verticalAlign=middle;spacingTop=-1;spacingLeft=3;spacingRight=3;rotatable=0;labelPosition=right;points=[];portConstraint=eastwest;" parent="7tPE2KJ426EZoo1Mz3U_-148" vertex="1">
          <mxGeometry y="286" width="320" height="8" as="geometry" />
        </mxCell>
        <mxCell id="7tPE2KJ426EZoo1Mz3U_-160" value="+ProductEntity()" style="text;strokeColor=none;fillColor=none;align=left;verticalAlign=top;spacingLeft=4;spacingRight=4;overflow=hidden;rotatable=0;points=[[0,0.5],[1,0.5]];portConstraint=eastwest;" parent="7tPE2KJ426EZoo1Mz3U_-148" vertex="1">
          <mxGeometry y="294" width="320" height="26" as="geometry" />
        </mxCell>
        <mxCell id="7tPE2KJ426EZoo1Mz3U_-161" value="+ProductEntity(ProductModel)" style="text;strokeColor=none;fillColor=none;align=left;verticalAlign=top;spacingLeft=4;spacingRight=4;overflow=hidden;rotatable=0;points=[[0,0.5],[1,0.5]];portConstraint=eastwest;" parent="7tPE2KJ426EZoo1Mz3U_-148" vertex="1">
          <mxGeometry y="320" width="320" height="26" as="geometry" />
        </mxCell>
        <mxCell id="7tPE2KJ426EZoo1Mz3U_-162" value="+ProductEntity(Guid)" style="text;strokeColor=none;fillColor=none;align=left;verticalAlign=top;spacingLeft=4;spacingRight=4;overflow=hidden;rotatable=0;points=[[0,0.5],[1,0.5]];portConstraint=eastwest;" parent="7tPE2KJ426EZoo1Mz3U_-148" vertex="1">
          <mxGeometry y="346" width="320" height="26" as="geometry" />
        </mxCell>
        <mxCell id="7tPE2KJ426EZoo1Mz3U_-163" value="+toEntityList(List&lt;ProductModel&gt;): List&lt;ProductEntity&gt;" style="text;strokeColor=none;fillColor=none;align=left;verticalAlign=top;spacingLeft=4;spacingRight=4;overflow=hidden;rotatable=0;points=[[0,0.5],[1,0.5]];portConstraint=eastwest;" parent="7tPE2KJ426EZoo1Mz3U_-148" vertex="1">
          <mxGeometry y="372" width="320" height="26" as="geometry" />
        </mxCell>
        <mxCell id="7tPE2KJ426EZoo1Mz3U_-164" value="+IdtoEntityList(List&lt;Guid&gt;): List&lt;ProductEntity&gt;" style="text;strokeColor=none;fillColor=none;align=left;verticalAlign=top;spacingLeft=4;spacingRight=4;overflow=hidden;rotatable=0;points=[[0,0.5],[1,0.5]];portConstraint=eastwest;" parent="7tPE2KJ426EZoo1Mz3U_-148" vertex="1">
          <mxGeometry y="398" width="320" height="26" as="geometry" />
        </mxCell>
        <mxCell id="7tPE2KJ426EZoo1Mz3U_-165" value="ProductImageEntity" style="swimlane;fontStyle=1;childLayout=stackLayout;horizontal=1;startSize=26;horizontalStack=0;resizeParent=1;resizeParentMax=0;resizeLast=0;collapsible=1;marginBottom=0;" parent="WIyWlLk6GJQsqaUBKTNV-1" vertex="1">
          <mxGeometry x="284" y="-133" width="160" height="104" as="geometry" />
        </mxCell>
        <mxCell id="7tPE2KJ426EZoo1Mz3U_-166" value="-Id: Guid" style="text;strokeColor=none;fillColor=none;align=left;verticalAlign=top;spacingLeft=4;spacingRight=4;overflow=hidden;rotatable=0;points=[[0,0.5],[1,0.5]];portConstraint=eastwest;" parent="7tPE2KJ426EZoo1Mz3U_-165" vertex="1">
          <mxGeometry y="26" width="160" height="26" as="geometry" />
        </mxCell>
        <mxCell id="7tPE2KJ426EZoo1Mz3U_-167" value="-FileName: String" style="text;strokeColor=none;fillColor=none;align=left;verticalAlign=top;spacingLeft=4;spacingRight=4;overflow=hidden;rotatable=0;points=[[0,0.5],[1,0.5]];portConstraint=eastwest;" parent="7tPE2KJ426EZoo1Mz3U_-165" vertex="1">
          <mxGeometry y="52" width="160" height="26" as="geometry" />
        </mxCell>
        <mxCell id="7tPE2KJ426EZoo1Mz3U_-168" value="-Image: String" style="text;strokeColor=none;fillColor=none;align=left;verticalAlign=top;spacingLeft=4;spacingRight=4;overflow=hidden;rotatable=0;points=[[0,0.5],[1,0.5]];portConstraint=eastwest;" parent="7tPE2KJ426EZoo1Mz3U_-165" vertex="1">
          <mxGeometry y="78" width="160" height="26" as="geometry" />
        </mxCell>
        <mxCell id="7tPE2KJ426EZoo1Mz3U_-169" value="ProductOrderEntity" style="swimlane;fontStyle=1;childLayout=stackLayout;horizontal=1;startSize=26;horizontalStack=0;resizeParent=1;resizeParentMax=0;resizeLast=0;collapsible=1;marginBottom=0;" parent="WIyWlLk6GJQsqaUBKTNV-1" vertex="1">
          <mxGeometry x="364" y="511" width="330" height="216" as="geometry" />
        </mxCell>
        <mxCell id="7tPE2KJ426EZoo1Mz3U_-170" value="-Product: ProductEntity" style="text;strokeColor=none;fillColor=none;align=left;verticalAlign=top;spacingLeft=4;spacingRight=4;overflow=hidden;rotatable=0;points=[[0,0.5],[1,0.5]];portConstraint=eastwest;" parent="7tPE2KJ426EZoo1Mz3U_-169" vertex="1">
          <mxGeometry y="26" width="330" height="26" as="geometry" />
        </mxCell>
        <mxCell id="7tPE2KJ426EZoo1Mz3U_-171" value="-Quantity: Decimal" style="text;strokeColor=none;fillColor=none;align=left;verticalAlign=top;spacingLeft=4;spacingRight=4;overflow=hidden;rotatable=0;points=[[0,0.5],[1,0.5]];portConstraint=eastwest;" parent="7tPE2KJ426EZoo1Mz3U_-169" vertex="1">
          <mxGeometry y="52" width="330" height="26" as="geometry" />
        </mxCell>
        <mxCell id="7tPE2KJ426EZoo1Mz3U_-172" value="-PriceAtPurchase: Decimal" style="text;strokeColor=none;fillColor=none;align=left;verticalAlign=top;spacingLeft=4;spacingRight=4;overflow=hidden;rotatable=0;points=[[0,0.5],[1,0.5]];portConstraint=eastwest;" parent="7tPE2KJ426EZoo1Mz3U_-169" vertex="1">
          <mxGeometry y="78" width="330" height="26" as="geometry" />
        </mxCell>
        <mxCell id="7tPE2KJ426EZoo1Mz3U_-173" value="-Amount: Decimal" style="text;strokeColor=none;fillColor=none;align=left;verticalAlign=top;spacingLeft=4;spacingRight=4;overflow=hidden;rotatable=0;points=[[0,0.5],[1,0.5]];portConstraint=eastwest;" parent="7tPE2KJ426EZoo1Mz3U_-169" vertex="1">
          <mxGeometry y="104" width="330" height="26" as="geometry" />
        </mxCell>
        <mxCell id="7tPE2KJ426EZoo1Mz3U_-174" value="" style="line;strokeWidth=1;fillColor=none;align=left;verticalAlign=middle;spacingTop=-1;spacingLeft=3;spacingRight=3;rotatable=0;labelPosition=right;points=[];portConstraint=eastwest;" parent="7tPE2KJ426EZoo1Mz3U_-169" vertex="1">
          <mxGeometry y="130" width="330" height="8" as="geometry" />
        </mxCell>
        <mxCell id="7tPE2KJ426EZoo1Mz3U_-175" value="+ProductOrderEntity(Guid, Decimal, Decimal, Decimal)" style="text;strokeColor=none;fillColor=none;align=left;verticalAlign=top;spacingLeft=4;spacingRight=4;overflow=hidden;rotatable=0;points=[[0,0.5],[1,0.5]];portConstraint=eastwest;" parent="7tPE2KJ426EZoo1Mz3U_-169" vertex="1">
          <mxGeometry y="138" width="330" height="26" as="geometry" />
        </mxCell>
        <mxCell id="7tPE2KJ426EZoo1Mz3U_-176" value="+ProductOrderEntity(ProductEntity, ProductOrderModel)" style="text;strokeColor=none;fillColor=none;align=left;verticalAlign=top;spacingLeft=4;spacingRight=4;overflow=hidden;rotatable=0;points=[[0,0.5],[1,0.5]];portConstraint=eastwest;" parent="7tPE2KJ426EZoo1Mz3U_-169" vertex="1">
          <mxGeometry y="164" width="330" height="26" as="geometry" />
        </mxCell>
        <mxCell id="7tPE2KJ426EZoo1Mz3U_-177" value="+ProductOrderEntity(Guid, Decimal)" style="text;strokeColor=none;fillColor=none;align=left;verticalAlign=top;spacingLeft=4;spacingRight=4;overflow=hidden;rotatable=0;points=[[0,0.5],[1,0.5]];portConstraint=eastwest;" parent="7tPE2KJ426EZoo1Mz3U_-169" vertex="1">
          <mxGeometry y="190" width="330" height="26" as="geometry" />
        </mxCell>
        <mxCell id="7tPE2KJ426EZoo1Mz3U_-178" value="ReviewEntity" style="swimlane;fontStyle=1;childLayout=stackLayout;horizontal=1;startSize=26;horizontalStack=0;resizeParent=1;resizeParentMax=0;resizeLast=0;collapsible=1;marginBottom=0;" parent="WIyWlLk6GJQsqaUBKTNV-1" vertex="1">
          <mxGeometry x="317" y="82" width="310" height="268" as="geometry" />
        </mxCell>
        <mxCell id="7tPE2KJ426EZoo1Mz3U_-179" value="-Id: Guid" style="text;strokeColor=none;fillColor=none;align=left;verticalAlign=top;spacingLeft=4;spacingRight=4;overflow=hidden;rotatable=0;points=[[0,0.5],[1,0.5]];portConstraint=eastwest;" parent="7tPE2KJ426EZoo1Mz3U_-178" vertex="1">
          <mxGeometry y="26" width="310" height="26" as="geometry" />
        </mxCell>
        <mxCell id="7tPE2KJ426EZoo1Mz3U_-180" value="-Product: ProductEntity" style="text;strokeColor=none;fillColor=none;align=left;verticalAlign=top;spacingLeft=4;spacingRight=4;overflow=hidden;rotatable=0;points=[[0,0.5],[1,0.5]];portConstraint=eastwest;" parent="7tPE2KJ426EZoo1Mz3U_-178" vertex="1">
          <mxGeometry y="52" width="310" height="26" as="geometry" />
        </mxCell>
        <mxCell id="7tPE2KJ426EZoo1Mz3U_-181" value="-Customer: CustomerEntity" style="text;strokeColor=none;fillColor=none;align=left;verticalAlign=top;spacingLeft=4;spacingRight=4;overflow=hidden;rotatable=0;points=[[0,0.5],[1,0.5]];portConstraint=eastwest;" parent="7tPE2KJ426EZoo1Mz3U_-178" vertex="1">
          <mxGeometry y="78" width="310" height="26" as="geometry" />
        </mxCell>
        <mxCell id="7tPE2KJ426EZoo1Mz3U_-182" value="-Rating: Int" style="text;strokeColor=none;fillColor=none;align=left;verticalAlign=top;spacingLeft=4;spacingRight=4;overflow=hidden;rotatable=0;points=[[0,0.5],[1,0.5]];portConstraint=eastwest;" parent="7tPE2KJ426EZoo1Mz3U_-178" vertex="1">
          <mxGeometry y="104" width="310" height="26" as="geometry" />
        </mxCell>
        <mxCell id="7tPE2KJ426EZoo1Mz3U_-183" value="-Comment: String?" style="text;strokeColor=none;fillColor=none;align=left;verticalAlign=top;spacingLeft=4;spacingRight=4;overflow=hidden;rotatable=0;points=[[0,0.5],[1,0.5]];portConstraint=eastwest;" parent="7tPE2KJ426EZoo1Mz3U_-178" vertex="1">
          <mxGeometry y="130" width="310" height="26" as="geometry" />
        </mxCell>
        <mxCell id="7tPE2KJ426EZoo1Mz3U_-184" value="-CreatedAt: DateTime" style="text;strokeColor=none;fillColor=none;align=left;verticalAlign=top;spacingLeft=4;spacingRight=4;overflow=hidden;rotatable=0;points=[[0,0.5],[1,0.5]];portConstraint=eastwest;" parent="7tPE2KJ426EZoo1Mz3U_-178" vertex="1">
          <mxGeometry y="156" width="310" height="26" as="geometry" />
        </mxCell>
        <mxCell id="7tPE2KJ426EZoo1Mz3U_-185" value="" style="line;strokeWidth=1;fillColor=none;align=left;verticalAlign=middle;spacingTop=-1;spacingLeft=3;spacingRight=3;rotatable=0;labelPosition=right;points=[];portConstraint=eastwest;" parent="7tPE2KJ426EZoo1Mz3U_-178" vertex="1">
          <mxGeometry y="182" width="310" height="8" as="geometry" />
        </mxCell>
        <mxCell id="7tPE2KJ426EZoo1Mz3U_-186" value="+ReviewEntity()" style="text;strokeColor=none;fillColor=none;align=left;verticalAlign=top;spacingLeft=4;spacingRight=4;overflow=hidden;rotatable=0;points=[[0,0.5],[1,0.5]];portConstraint=eastwest;" parent="7tPE2KJ426EZoo1Mz3U_-178" vertex="1">
          <mxGeometry y="190" width="310" height="26" as="geometry" />
        </mxCell>
        <mxCell id="7tPE2KJ426EZoo1Mz3U_-187" value="+ReviewEntity(ReviewModel)" style="text;strokeColor=none;fillColor=none;align=left;verticalAlign=top;spacingLeft=4;spacingRight=4;overflow=hidden;rotatable=0;points=[[0,0.5],[1,0.5]];portConstraint=eastwest;" parent="7tPE2KJ426EZoo1Mz3U_-178" vertex="1">
          <mxGeometry y="216" width="310" height="26" as="geometry" />
        </mxCell>
        <mxCell id="7tPE2KJ426EZoo1Mz3U_-188" value="+toEntityList(List&lt;ReviewModel&gt;): List&lt;ReviewEntity&gt;" style="text;strokeColor=none;fillColor=none;align=left;verticalAlign=top;spacingLeft=4;spacingRight=4;overflow=hidden;rotatable=0;points=[[0,0.5],[1,0.5]];portConstraint=eastwest;" parent="7tPE2KJ426EZoo1Mz3U_-178" vertex="1">
          <mxGeometry y="242" width="310" height="26" as="geometry" />
        </mxCell>
        <mxCell id="7tPE2KJ426EZoo1Mz3U_-189" value="WarehouseEntity" style="swimlane;fontStyle=1;childLayout=stackLayout;horizontal=1;startSize=26;horizontalStack=0;resizeParent=1;resizeParentMax=0;resizeLast=0;collapsible=1;marginBottom=0;" parent="WIyWlLk6GJQsqaUBKTNV-1" vertex="1">
          <mxGeometry x="-495" y="207" width="230" height="216" as="geometry" />
        </mxCell>
        <mxCell id="7tPE2KJ426EZoo1Mz3U_-190" value="-Id: Guid" style="text;strokeColor=none;fillColor=none;align=left;verticalAlign=top;spacingLeft=4;spacingRight=4;overflow=hidden;rotatable=0;points=[[0,0.5],[1,0.5]];portConstraint=eastwest;" parent="7tPE2KJ426EZoo1Mz3U_-189" vertex="1">
          <mxGeometry y="26" width="230" height="26" as="geometry" />
        </mxCell>
        <mxCell id="7tPE2KJ426EZoo1Mz3U_-191" value="-Name: String" style="text;strokeColor=none;fillColor=none;align=left;verticalAlign=top;spacingLeft=4;spacingRight=4;overflow=hidden;rotatable=0;points=[[0,0.5],[1,0.5]];portConstraint=eastwest;" parent="7tPE2KJ426EZoo1Mz3U_-189" vertex="1">
          <mxGeometry y="52" width="230" height="26" as="geometry" />
        </mxCell>
        <mxCell id="7tPE2KJ426EZoo1Mz3U_-192" value="-Location: String" style="text;strokeColor=none;fillColor=none;align=left;verticalAlign=top;spacingLeft=4;spacingRight=4;overflow=hidden;rotatable=0;points=[[0,0.5],[1,0.5]];portConstraint=eastwest;" parent="7tPE2KJ426EZoo1Mz3U_-189" vertex="1">
          <mxGeometry y="78" width="230" height="26" as="geometry" />
        </mxCell>
        <mxCell id="7tPE2KJ426EZoo1Mz3U_-193" value="-Manager: WarehouseManagerEntity" style="text;strokeColor=none;fillColor=none;align=left;verticalAlign=top;spacingLeft=4;spacingRight=4;overflow=hidden;rotatable=0;points=[[0,0.5],[1,0.5]];portConstraint=eastwest;" parent="7tPE2KJ426EZoo1Mz3U_-189" vertex="1">
          <mxGeometry y="104" width="230" height="26" as="geometry" />
        </mxCell>
        <mxCell id="7tPE2KJ426EZoo1Mz3U_-194" value="" style="line;strokeWidth=1;fillColor=none;align=left;verticalAlign=middle;spacingTop=-1;spacingLeft=3;spacingRight=3;rotatable=0;labelPosition=right;points=[];portConstraint=eastwest;" parent="7tPE2KJ426EZoo1Mz3U_-189" vertex="1">
          <mxGeometry y="130" width="230" height="8" as="geometry" />
        </mxCell>
        <mxCell id="7tPE2KJ426EZoo1Mz3U_-195" value="+WarehouseEntity()" style="text;strokeColor=none;fillColor=none;align=left;verticalAlign=top;spacingLeft=4;spacingRight=4;overflow=hidden;rotatable=0;points=[[0,0.5],[1,0.5]];portConstraint=eastwest;" parent="7tPE2KJ426EZoo1Mz3U_-189" vertex="1">
          <mxGeometry y="138" width="230" height="26" as="geometry" />
        </mxCell>
        <mxCell id="7tPE2KJ426EZoo1Mz3U_-196" value="+WarehouseEntity(Guid)" style="text;strokeColor=none;fillColor=none;align=left;verticalAlign=top;spacingLeft=4;spacingRight=4;overflow=hidden;rotatable=0;points=[[0,0.5],[1,0.5]];portConstraint=eastwest;" parent="7tPE2KJ426EZoo1Mz3U_-189" vertex="1">
          <mxGeometry y="164" width="230" height="26" as="geometry" />
        </mxCell>
        <mxCell id="7tPE2KJ426EZoo1Mz3U_-197" value="+WarehouseEntity(WarehouseModel)" style="text;strokeColor=none;fillColor=none;align=left;verticalAlign=top;spacingLeft=4;spacingRight=4;overflow=hidden;rotatable=0;points=[[0,0.5],[1,0.5]];portConstraint=eastwest;" parent="7tPE2KJ426EZoo1Mz3U_-189" vertex="1">
          <mxGeometry y="190" width="230" height="26" as="geometry" />
        </mxCell>
        <mxCell id="7tPE2KJ426EZoo1Mz3U_-198" value="WarehouseManagerEntity" style="swimlane;fontStyle=1;childLayout=stackLayout;horizontal=1;startSize=26;horizontalStack=0;resizeParent=1;resizeParentMax=0;resizeLast=0;collapsible=1;marginBottom=0;" parent="WIyWlLk6GJQsqaUBKTNV-1" vertex="1">
          <mxGeometry x="-527" y="-129" width="320" height="242" as="geometry" />
        </mxCell>
        <mxCell id="7tPE2KJ426EZoo1Mz3U_-199" value="-Id: Guid" style="text;strokeColor=none;fillColor=none;align=left;verticalAlign=top;spacingLeft=4;spacingRight=4;overflow=hidden;rotatable=0;points=[[0,0.5],[1,0.5]];portConstraint=eastwest;" parent="7tPE2KJ426EZoo1Mz3U_-198" vertex="1">
          <mxGeometry y="26" width="320" height="26" as="geometry" />
        </mxCell>
        <mxCell id="7tPE2KJ426EZoo1Mz3U_-200" value="-Name: String" style="text;strokeColor=none;fillColor=none;align=left;verticalAlign=top;spacingLeft=4;spacingRight=4;overflow=hidden;rotatable=0;points=[[0,0.5],[1,0.5]];portConstraint=eastwest;" parent="7tPE2KJ426EZoo1Mz3U_-198" vertex="1">
          <mxGeometry y="52" width="320" height="26" as="geometry" />
        </mxCell>
        <mxCell id="7tPE2KJ426EZoo1Mz3U_-201" value="-Email: String" style="text;strokeColor=none;fillColor=none;align=left;verticalAlign=top;spacingLeft=4;spacingRight=4;overflow=hidden;rotatable=0;points=[[0,0.5],[1,0.5]];portConstraint=eastwest;" parent="7tPE2KJ426EZoo1Mz3U_-198" vertex="1">
          <mxGeometry y="78" width="320" height="26" as="geometry" />
        </mxCell>
        <mxCell id="7tPE2KJ426EZoo1Mz3U_-202" value="-Phone: String" style="text;strokeColor=none;fillColor=none;align=left;verticalAlign=top;spacingLeft=4;spacingRight=4;overflow=hidden;rotatable=0;points=[[0,0.5],[1,0.5]];portConstraint=eastwest;" parent="7tPE2KJ426EZoo1Mz3U_-198" vertex="1">
          <mxGeometry y="104" width="320" height="26" as="geometry" />
        </mxCell>
        <mxCell id="7tPE2KJ426EZoo1Mz3U_-203" value="-Status: String" style="text;strokeColor=none;fillColor=none;align=left;verticalAlign=top;spacingLeft=4;spacingRight=4;overflow=hidden;rotatable=0;points=[[0,0.5],[1,0.5]];portConstraint=eastwest;" parent="7tPE2KJ426EZoo1Mz3U_-198" vertex="1">
          <mxGeometry y="130" width="320" height="26" as="geometry" />
        </mxCell>
        <mxCell id="7tPE2KJ426EZoo1Mz3U_-204" value="" style="line;strokeWidth=1;fillColor=none;align=left;verticalAlign=middle;spacingTop=-1;spacingLeft=3;spacingRight=3;rotatable=0;labelPosition=right;points=[];portConstraint=eastwest;" parent="7tPE2KJ426EZoo1Mz3U_-198" vertex="1">
          <mxGeometry y="156" width="320" height="8" as="geometry" />
        </mxCell>
        <mxCell id="7tPE2KJ426EZoo1Mz3U_-205" value="+WarehouseManagerEntity()" style="text;strokeColor=none;fillColor=none;align=left;verticalAlign=top;spacingLeft=4;spacingRight=4;overflow=hidden;rotatable=0;points=[[0,0.5],[1,0.5]];portConstraint=eastwest;" parent="7tPE2KJ426EZoo1Mz3U_-198" vertex="1">
          <mxGeometry y="164" width="320" height="26" as="geometry" />
        </mxCell>
        <mxCell id="7tPE2KJ426EZoo1Mz3U_-206" value="+WarehouseManagerEntity(WarehouseManagerModel)" style="text;strokeColor=none;fillColor=none;align=left;verticalAlign=top;spacingLeft=4;spacingRight=4;overflow=hidden;rotatable=0;points=[[0,0.5],[1,0.5]];portConstraint=eastwest;" parent="7tPE2KJ426EZoo1Mz3U_-198" vertex="1">
          <mxGeometry y="190" width="320" height="26" as="geometry" />
        </mxCell>
        <mxCell id="7tPE2KJ426EZoo1Mz3U_-207" value="+WarehouseManagerEntity(Guid)" style="text;strokeColor=none;fillColor=none;align=left;verticalAlign=top;spacingLeft=4;spacingRight=4;overflow=hidden;rotatable=0;points=[[0,0.5],[1,0.5]];portConstraint=eastwest;" parent="7tPE2KJ426EZoo1Mz3U_-198" vertex="1">
          <mxGeometry y="216" width="320" height="26" as="geometry" />
        </mxCell>
        <mxCell id="7tPE2KJ426EZoo1Mz3U_-208" value="" style="endArrow=open;endFill=1;endSize=12;html=1;rounded=0;exitX=0.548;exitY=-0.003;exitDx=0;exitDy=0;exitPerimeter=0;entryX=0.481;entryY=1;entryDx=0;entryDy=0;entryPerimeter=0;" parent="WIyWlLk6GJQsqaUBKTNV-1" source="7tPE2KJ426EZoo1Mz3U_-113" target="7tPE2KJ426EZoo1Mz3U_-134" edge="1">
          <mxGeometry width="160" relative="1" as="geometry">
            <mxPoint x="-52" y="845" as="sourcePoint" />
            <mxPoint x="108" y="845" as="targetPoint" />
          </mxGeometry>
        </mxCell>
        <mxCell id="7tPE2KJ426EZoo1Mz3U_-209" value="Provides" style="edgeLabel;html=1;align=center;verticalAlign=middle;resizable=0;points=[];" parent="7tPE2KJ426EZoo1Mz3U_-208" vertex="1" connectable="0">
          <mxGeometry x="0.1824" y="3" relative="1" as="geometry">
            <mxPoint y="-1" as="offset" />
          </mxGeometry>
        </mxCell>
        <mxCell id="7tPE2KJ426EZoo1Mz3U_-212" value="" style="endArrow=open;endFill=1;endSize=12;html=1;rounded=0;exitX=0.488;exitY=1;exitDx=0;exitDy=0;exitPerimeter=0;entryX=0.5;entryY=0;entryDx=0;entryDy=0;" parent="WIyWlLk6GJQsqaUBKTNV-1" source="7tPE2KJ426EZoo1Mz3U_-207" target="7tPE2KJ426EZoo1Mz3U_-189" edge="1">
          <mxGeometry width="160" relative="1" as="geometry">
            <mxPoint x="-512" y="503" as="sourcePoint" />
            <mxPoint x="-622" y="385" as="targetPoint" />
          </mxGeometry>
        </mxCell>
        <mxCell id="7tPE2KJ426EZoo1Mz3U_-213" value="Manages" style="edgeLabel;html=1;align=center;verticalAlign=middle;resizable=0;points=[];" parent="7tPE2KJ426EZoo1Mz3U_-212" vertex="1" connectable="0">
          <mxGeometry x="0.1824" y="3" relative="1" as="geometry">
            <mxPoint y="-1" as="offset" />
          </mxGeometry>
        </mxCell>
        <mxCell id="7tPE2KJ426EZoo1Mz3U_-214" value="" style="endArrow=diamondThin;endFill=1;endSize=24;html=1;rounded=0;exitX=0;exitY=0.5;exitDx=0;exitDy=0;entryX=1;entryY=0.5;entryDx=0;entryDy=0;" parent="WIyWlLk6GJQsqaUBKTNV-1" source="7tPE2KJ426EZoo1Mz3U_-167" target="7tPE2KJ426EZoo1Mz3U_-155" edge="1">
          <mxGeometry width="160" relative="1" as="geometry">
            <mxPoint x="-352" y="191" as="sourcePoint" />
            <mxPoint x="48" y="311" as="targetPoint" />
          </mxGeometry>
        </mxCell>
        <mxCell id="7tPE2KJ426EZoo1Mz3U_-215" value="" style="endArrow=diamondThin;endFill=1;endSize=24;html=1;rounded=0;exitX=0;exitY=0.5;exitDx=0;exitDy=0;entryX=1;entryY=0.5;entryDx=0;entryDy=0;" parent="WIyWlLk6GJQsqaUBKTNV-1" source="7tPE2KJ426EZoo1Mz3U_-175" target="7tPE2KJ426EZoo1Mz3U_-141" edge="1">
          <mxGeometry width="160" relative="1" as="geometry">
            <mxPoint x="318" y="615" as="sourcePoint" />
            <mxPoint x="325" y="529" as="targetPoint" />
          </mxGeometry>
        </mxCell>
        <mxCell id="7tPE2KJ426EZoo1Mz3U_-218" value="" style="endArrow=diamondThin;endFill=0;endSize=24;html=1;rounded=0;entryX=0.25;entryY=0;entryDx=0;entryDy=0;exitX=1;exitY=0.5;exitDx=0;exitDy=0;" parent="WIyWlLk6GJQsqaUBKTNV-1" source="7tPE2KJ426EZoo1Mz3U_-164" target="7tPE2KJ426EZoo1Mz3U_-169" edge="1">
          <mxGeometry width="160" relative="1" as="geometry">
            <mxPoint x="108" y="105" as="sourcePoint" />
            <mxPoint x="268" y="105" as="targetPoint" />
          </mxGeometry>
        </mxCell>
        <mxCell id="7tPE2KJ426EZoo1Mz3U_-219" value="" style="endArrow=diamondThin;endFill=0;endSize=24;html=1;rounded=0;entryX=0.5;entryY=0;entryDx=0;entryDy=0;exitX=0;exitY=0.5;exitDx=0;exitDy=0;" parent="WIyWlLk6GJQsqaUBKTNV-1" source="7tPE2KJ426EZoo1Mz3U_-164" target="7tPE2KJ426EZoo1Mz3U_-125" edge="1">
          <mxGeometry width="160" relative="1" as="geometry">
            <mxPoint x="-302" y="295" as="sourcePoint" />
            <mxPoint x="31" y="614" as="targetPoint" />
          </mxGeometry>
        </mxCell>
        <mxCell id="7tPE2KJ426EZoo1Mz3U_-220" value="" style="endArrow=diamondThin;endFill=0;endSize=24;html=1;rounded=0;entryX=0;entryY=0.5;entryDx=0;entryDy=0;exitX=1;exitY=0.5;exitDx=0;exitDy=0;" parent="WIyWlLk6GJQsqaUBKTNV-1" source="7tPE2KJ426EZoo1Mz3U_-163" target="7tPE2KJ426EZoo1Mz3U_-179" edge="1">
          <mxGeometry width="160" relative="1" as="geometry">
            <mxPoint x="198" y="282" as="sourcePoint" />
            <mxPoint x="521" y="675" as="targetPoint" />
          </mxGeometry>
        </mxCell>
        <mxCell id="7tPE2KJ426EZoo1Mz3U_-225" value="" style="endArrow=open;endFill=1;endSize=12;html=1;rounded=0;exitX=1;exitY=0;exitDx=0;exitDy=0;entryX=0;entryY=0.5;entryDx=0;entryDy=0;" parent="WIyWlLk6GJQsqaUBKTNV-1" source="7tPE2KJ426EZoo1Mz3U_-100" target="7tPE2KJ426EZoo1Mz3U_-188" edge="1">
          <mxGeometry width="160" relative="1" as="geometry">
            <mxPoint x="398" y="435" as="sourcePoint" />
            <mxPoint x="288" y="317" as="targetPoint" />
          </mxGeometry>
        </mxCell>
        <mxCell id="7tPE2KJ426EZoo1Mz3U_-226" value="Gives" style="edgeLabel;html=1;align=center;verticalAlign=middle;resizable=0;points=[];" parent="7tPE2KJ426EZoo1Mz3U_-225" vertex="1" connectable="0">
          <mxGeometry x="0.1824" y="3" relative="1" as="geometry">
            <mxPoint y="-1" as="offset" />
          </mxGeometry>
        </mxCell>
        <mxCell id="7tPE2KJ426EZoo1Mz3U_-235" value="" style="endArrow=open;endFill=1;endSize=12;html=1;rounded=0;exitX=0.25;exitY=0;exitDx=0;exitDy=0;entryX=0.531;entryY=0.99;entryDx=0;entryDy=0;entryPerimeter=0;" parent="WIyWlLk6GJQsqaUBKTNV-1" source="7tPE2KJ426EZoo1Mz3U_-100" target="7tPE2KJ426EZoo1Mz3U_-147" edge="1">
          <mxGeometry width="160" relative="1" as="geometry">
            <mxPoint x="78" y="795" as="sourcePoint" />
            <mxPoint x="-32" y="677" as="targetPoint" />
          </mxGeometry>
        </mxCell>
        <mxCell id="7tPE2KJ426EZoo1Mz3U_-238" value="Submits&amp;nbsp;" style="edgeLabel;html=1;align=center;verticalAlign=middle;resizable=0;points=[];" parent="7tPE2KJ426EZoo1Mz3U_-235" vertex="1" connectable="0">
          <mxGeometry x="0.0014" y="-1" relative="1" as="geometry">
            <mxPoint as="offset" />
          </mxGeometry>
        </mxCell>
        <mxCell id="7tPE2KJ426EZoo1Mz3U_-239" value="" style="endArrow=diamondThin;endFill=1;endSize=24;html=1;rounded=0;exitX=0.25;exitY=0;exitDx=0;exitDy=0;entryX=0.435;entryY=1;entryDx=0;entryDy=0;entryPerimeter=0;" parent="WIyWlLk6GJQsqaUBKTNV-1" source="7tPE2KJ426EZoo1Mz3U_-125" target="7tPE2KJ426EZoo1Mz3U_-197" edge="1">
          <mxGeometry width="160" relative="1" as="geometry">
            <mxPoint x="-512" y="605" as="sourcePoint" />
            <mxPoint x="-390" y="430" as="targetPoint" />
          </mxGeometry>
        </mxCell>
      </root>
    </mxGraphModel>
  </diagram>
</mxfile>
